<svg xmlns="http://www.w3.org/2000/svg" version="1.1" xmlns:xlink="http://www.w3.org/1999/xlink" xmlns:svgjs="http://svgjs.com/svgjs" width="2000" height="1000" preserveAspectRatio="none" viewBox="0 0 2000 1000"><g mask="url(&quot;#SvgjsMask1662&quot;)" fill="none"><rect width="2000" height="1000" x="0" y="0" fill="url(#SvgjsLinearGradient1663)"></rect><path d="M2100.0000000000005 1000L0 1000 L0 602.99Q100.19 536.51, 166.66666666666669 636.7Q186.3 489.67, 333.33333333333337 509.31Q389.92 465.89, 433.33333333333337 522.48Q564.4 486.88, 600 617.94Q641.23 492.51, 766.6666666666667 533.74Q857.68 458.08, 933.3333333333335 549.09Q1050.31 499.4, 1100.0000000000002 616.37Q1142.46 558.83, 1200.0000000000002 601.28Q1268.68 503.29, 1366.666666666667 571.97Q1439.62 544.92, 1466.666666666667 617.87Q1539.31 590.51, 1566.666666666667 663.15Q1578.37 574.86, 1666.666666666667 586.56Q1687.12 507.01, 1766.666666666667 527.47Q1856.88 451.02, 1933.3333333333337 541.23Q2054.85 496.08, 2100.0000000000005 617.6z" fill="#182f5d"></path><path d="M2066.666666666667 1000L0 1000 L0 634.69Q55.31 590, 100 645.31Q254.21 632.85, 266.6666666666667 787.06Q296.27 716.66, 366.6666666666667 746.26Q383.05 662.64, 466.6666666666667 679.02Q497.63 609.98, 566.6666666666667 640.94Q625.1 599.37, 666.6666666666667 657.8Q736.52 560.98, 833.3333333333335 630.83Q973.43 604.26, 1000.0000000000002 744.36Q1032.1 676.46, 1100.0000000000002 708.56Q1192.92 634.82, 1266.666666666667 727.74Q1269.26 630.33, 1366.666666666667 632.92Q1458.43 558.01, 1533.3333333333337 649.77Q1633.45 583.22, 1700.0000000000005 683.34Q1766.46 649.8, 1800.0000000000005 716.26Q1873.5 689.76, 1900.0000000000005 763.26Q1930.36 626.96, 2066.666666666667 657.32z" fill="#25467d"></path><path d="M2033.3333333333337 1000L0 1000 L0 923.9Q56.17 813.4, 166.66666666666669 869.57Q161.25 764.15, 266.6666666666667 758.74Q393.55 718.96, 433.33333333333337 845.84Q493.47 805.98, 533.3333333333334 866.12Q538.96 771.75, 633.3333333333334 777.37Q701.06 745.1, 733.3333333333334 812.83Q826.69 806.18, 833.3333333333334 899.54Q893.34 792.88, 1000 852.89Q1042.18 728.41, 1166.6666666666667 770.59Q1263.95 701.2, 1333.3333333333335 798.48Q1456.47 754.95, 1500.0000000000002 878.09Q1521.99 733.42, 1666.666666666667 755.41Q1724.05 712.79, 1766.666666666667 770.18Q1925.59 762.44, 1933.3333333333337 921.36Q1965.92 853.94, 2033.3333333333337 886.53z" fill="#356cb1"></path><path d="M2066.666666666667 1000L0 1000 L0 902.39Q91.97 827.7, 166.66666666666669 919.67Q269.65 855.99, 333.33333333333337 958.97Q425.95 951.59, 433.33333333333337 1044.2Q453.3 964.17, 533.3333333333334 984.14Q581.87 866.01, 700 914.55Q804 851.88, 866.6666666666667 955.88Q943.52 866.06, 1033.3333333333335 942.91Q1138.05 880.96, 1200.0000000000002 985.67Q1238.55 857.55, 1366.666666666667 896.1Q1425.52 854.95, 1466.666666666667 913.81Q1528.61 875.75, 1566.666666666667 937.7Q1658.4 862.76, 1733.3333333333337 954.49Q1828.7 883.19, 1900.0000000000005 978.56Q1948.03 859.92, 2066.666666666667 907.95z" fill="white"></path></g><defs><mask id="SvgjsMask1662"><rect width="2000" height="1000" fill="#ffffff"></rect></mask><linearGradient x1="100%" y1="50%" x2="0%" y2="50%" gradientUnits="userSpaceOnUse" id="SvgjsLinearGradient1663"><stop stop-color="#0e2a47" offset="0"></stop><stop stop-color="rgba(72, 132, 209, 1)" offset="1"></stop></linearGradient></defs></svg>